<svg width="159" height="47" viewBox="0 0 159 47" fill="none" xmlns="http://www.w3.org/2000/svg">
<path fill-rule="evenodd" clip-rule="evenodd" d="M137.127 44.7591L130.961 37.8462L124.857 44.7591H112.006L124.569 30.6442L112.006 16.5292H125.259L131.482 23.3854L137.471 16.5292H150.262L137.759 30.5863L150.434 44.758L137.127 44.7591ZM87.3235 44.7591V0.290039H112.006V10.2022H97.7779V16.5292H112.006V26.065H97.7779V34.8196H112.006V44.7591H87.3235Z" fill="#D9782D"/>
<path fill-rule="evenodd" clip-rule="evenodd" d="M76.9125 0.290039V18.4888H76.798C74.4937 15.8386 71.6133 14.9167 68.2725 14.9167C61.4262 14.9167 56.2699 19.5722 54.4609 25.7235C52.3955 18.9459 47.0723 14.7912 39.1796 14.7912C32.7686 14.7912 27.7072 17.6683 25.0647 22.3565V16.5292H11.8128V10.2022H26.2725V0.290039H0V44.7591H11.8128V26.065H23.5853C23.2224 27.502 23.0413 28.9788 23.0463 30.4609C23.0463 39.737 30.1337 46.2462 39.1786 46.2462C46.7832 46.2462 51.7944 42.6752 54.4456 36.166H44.3229C42.9547 38.1233 41.9149 38.7027 39.1786 38.7027C36.0036 38.7027 33.2672 35.9347 33.2672 32.6506H53.8794C54.7729 40.0174 60.5119 46.3717 68.3871 46.3717C71.7857 46.3717 74.8974 44.7013 76.798 41.8776H76.9125V44.7591H87.3233V0.290039H76.9125ZM33.5956 26.1981C34.2525 23.3756 36.4422 21.5284 39.1786 21.5284C42.1877 21.5284 44.2683 23.3189 44.8149 26.1981H33.5956ZM70.5932 37.9891C66.7549 37.9891 64.3709 34.4116 64.3709 30.678C64.3709 26.6858 66.4439 22.8486 70.5932 22.8486C74.8952 22.8486 76.607 26.6858 76.607 30.678C76.607 34.4618 74.7915 37.9891 70.5932 37.9891Z" fill="#F3F3F3"/>
<path fill-rule="evenodd" clip-rule="evenodd" d="M153.281 41.8942C153.282 41.5184 153.356 41.1464 153.501 40.7996C153.646 40.4527 153.857 40.1377 154.123 39.8726C154.39 39.6075 154.706 39.3976 155.054 39.2547C155.401 39.1118 155.773 39.0389 156.149 39.0401C156.524 39.0401 156.895 39.1139 157.241 39.2574C157.587 39.4009 157.902 39.6111 158.166 39.8762C158.431 40.1413 158.641 40.456 158.784 40.8022C158.927 41.1485 159.001 41.5196 159 41.8942C159.002 42.2699 158.93 42.6424 158.788 42.9901C158.646 43.3378 158.436 43.654 158.171 43.9203C157.906 44.1867 157.591 44.3981 157.244 44.5423C156.897 44.6864 156.525 44.7606 156.149 44.7604C155.772 44.7617 155.399 44.6885 155.051 44.5449C154.702 44.4014 154.385 44.1903 154.119 43.924C153.852 43.6576 153.641 43.3411 153.497 42.9928C153.353 42.6444 153.28 42.2711 153.281 41.8942ZM158.5 41.8942C158.5 41.271 158.252 40.6735 157.812 40.2327C157.371 39.7919 156.774 39.5439 156.15 39.543C155.525 39.5419 154.925 39.7888 154.481 40.2295C154.038 40.6703 153.788 41.269 153.785 41.8942C153.785 43.2024 154.842 44.2596 156.15 44.2596C156.46 44.2588 156.766 44.1969 157.052 44.0775C157.338 43.9582 157.597 43.7837 157.816 43.564C158.034 43.3443 158.207 43.0838 158.324 42.7973C158.442 42.5108 158.502 42.2039 158.5 41.8942ZM155.54 42.083V43.5374H155.017V40.1758H156.103C156.719 40.1758 157.358 40.3439 157.358 41.1043C157.358 41.4906 157.124 41.796 156.672 41.8888V41.9052C157.139 41.9957 157.192 42.2008 157.242 42.5652C157.289 42.8827 157.328 43.233 157.443 43.5385H156.772C156.734 43.3497 156.683 43.1359 156.659 42.9362C156.621 42.6471 156.621 42.3809 156.467 42.2216C156.339 42.0841 156.165 42.1005 155.981 42.0841H155.54V42.083ZM156.094 41.5615C156.59 41.5429 156.704 41.3378 156.704 41.0803C156.704 40.8305 156.59 40.6995 156.173 40.6995H155.54V41.5615H156.094Z" fill="#D9782D"/>
</svg>
